<svg width="1440" height="741" viewBox="0 0 1440 741" fill="none" xmlns="http://www.w3.org/2000/svg">
<mask id="path-1-inside-1_208_1407" fill="white">
<path fill-rule="evenodd" clip-rule="evenodd" d="M1440 961.001V962.001L0 962.001V961.001L1440 961.001ZM1439 960H1440V831.001V830.001V700.001V699.001V569V568V438V437V307V306V176V175V45.0002V44.0002V0.000366211H1439V44.0002H1309V0.000366211H1308V44.0002H1178V0.000366211H1177V44.0002H1047V0.000366211H1046V44.0002H916V0.000366211H915V44.0002H785V0.000366211H784V44.0002L654 44.0003V0.000366211H653V44.0003H523V0.000366211H522V44.0003H392V0.000366211H391V44.0003H261V0.000366211H260V44.0003H130V0.000366211H129V44.0003H0V45.0003H129V175H0V176H129V306H0V307H129V437H0V438H129V568.001H0V569.001H129V699.001H0V700.001H129V830.001H0V831.001H129V960H130V831.001L260 831.001V960H261V831.001H391V960H392V831.001H522V960H523V831.001L653 831.001V960H654V831.001H784V960H785V831.001L915 831.001V960H916V831.001H1046V960H1047V831.001H1177V960H1178V831.001L1308 831.001V960H1309V831.001H1439V960ZM130 45.0003V175H260V45.0003H130ZM261 45.0003V175H391V45.0003H261ZM392 45.0003V175H522V45.0003H392ZM523 45.0003V175H653V45.0003H523ZM654 45.0003V175L784 175V45.0002L654 45.0003ZM785 45.0002V175H915V45.0002H785ZM916 45.0002V175H1046V45.0002H916ZM1047 45.0002V175H1177V45.0002H1047ZM1178 45.0002V175H1308V45.0002H1178ZM1309 45.0002V175H1439V45.0002H1309ZM1309 176H1439V306H1309V176ZM1178 176H1308V306H1178V176ZM1047 176H1177V306H1047V176ZM916 176H1046V306H916V176ZM785 176H915V306H785V176ZM654 176L784 176V306L654 306V176ZM523 176H653V306H523V176ZM392 176H522V306H392V176ZM261 176H391V306H261V176ZM130 176H260V306H130V176ZM130 307V437H260V307H130ZM261 307V437H391V307H261ZM392 307V437H522V307H392ZM523 307V437H653V307H523ZM654 307V437L784 437V307L654 307ZM785 307V437H915V307H785ZM916 307V437H1046V307H916ZM1047 307V437H1177V307H1047ZM1178 307V437H1308V307H1178ZM1309 307V437H1439V307H1309ZM1309 438H1439V568H1309V438ZM1178 438H1308V568H1178V438ZM1047 438H1177V568L1047 568V438ZM916 438H1046V568H916V438ZM785 438H915V568H785V438ZM654 438L784 438V568H654V438ZM523 438H653V568H523V438ZM392 438H522V568H392V438ZM261 438H391V568L261 568.001V438ZM130 438H260V568.001H130V438ZM130 569.001V699.001H260V569.001H130ZM261 569.001V699.001L391 699.001V569L261 569.001ZM392 569V699.001H522V569H392ZM523 569V699.001H653V569H523ZM654 569V699.001H784V569H654ZM785 569V699.001H915V569H785ZM916 569V699.001H1046V569H916ZM1047 569V699.001L1177 699.001V569L1047 569ZM1178 569V699.001H1308V569H1178ZM1309 569V699.001H1439V569H1309ZM1309 700.001H1439V830.001H1309V700.001ZM1178 700.001H1308V830.001L1178 830.001V700.001ZM1047 700.001L1177 700.001V830.001H1047V700.001ZM916 700.001H1046V830.001H916V700.001ZM785 700.001H915V830.001L785 830.001V700.001ZM654 700.001H784V830.001H654V700.001ZM523 700.001H653V830.001L523 830.001V700.001ZM392 700.001H522V830.001H392V700.001ZM261 700.001L391 700.001V830.001H261V700.001ZM130 700.001H260V830.001L130 830.001V700.001ZM-2 960H-1V0.000366211H-2V960Z"/>
</mask>
<path d="M1440 962.001L1440 964.001L1442 964.001V962.001H1440ZM1440 961.001H1442V959.001H1440L1440 961.001ZM0 962.001H-2V964.001H0V962.001ZM0 961.001V959.001H-2V961.001H0ZM1440 960V962H1442V960H1440ZM1439 960H1437V962H1439V960ZM1440 0.000366211H1442V-1.99963H1440V0.000366211ZM1439 0.000366211V-1.99963H1437V0.000366211H1439ZM1439 44.0002V46.0002H1441V44.0002H1439ZM1309 44.0002H1307V46.0002H1309V44.0002ZM1309 0.000366211H1311V-1.99963H1309V0.000366211ZM1308 0.000366211V-1.99963H1306V0.000366211H1308ZM1308 44.0002V46.0002H1310V44.0002H1308ZM1178 44.0002H1176V46.0002H1178V44.0002ZM1178 0.000366211H1180V-1.99963H1178V0.000366211ZM1177 0.000366211V-1.99963H1175V0.000366211H1177ZM1177 44.0002V46.0002H1179V44.0002H1177ZM1047 44.0002H1045V46.0002H1047V44.0002ZM1047 0.000366211H1049V-1.99963H1047V0.000366211ZM1046 0.000366211V-1.99963H1044V0.000366211H1046ZM1046 44.0002V46.0002H1048V44.0002H1046ZM916 44.0002H914V46.0002H916V44.0002ZM916 0.000366211H918V-1.99963H916V0.000366211ZM915 0.000366211V-1.99963H913V0.000366211H915ZM915 44.0002V46.0002H917V44.0002H915ZM785 44.0002H783V46.0002H785V44.0002ZM785 0.000366211H787V-1.99963H785V0.000366211ZM784 0.000366211V-1.99963H782V0.000366211H784ZM784 44.0002V46.0002H786V44.0002H784ZM654 44.0003H652V46.0003H654V44.0003ZM654 0.000366211H656V-1.99963H654V0.000366211ZM653 0.000366211V-1.99963H651V0.000366211H653ZM653 44.0003V46.0003H655V44.0003H653ZM523 44.0003H521V46.0003H523V44.0003ZM523 0.000366211H525V-1.99963H523V0.000366211ZM522 0.000366211V-1.99963H520V0.000366211H522ZM522 44.0003V46.0003H524V44.0003H522ZM392 44.0003H390V46.0003H392V44.0003ZM392 0.000366211H394V-1.99963H392V0.000366211ZM391 0.000366211V-1.99963H389V0.000366211H391ZM391 44.0003V46.0003H393V44.0003H391ZM261 44.0003H259V46.0003H261V44.0003ZM261 0.000366211H263V-1.99963H261V0.000366211ZM260 0.000366211V-1.99963H258V0.000366211H260ZM260 44.0003V46.0003H262V44.0003H260ZM130 44.0003H128V46.0003H130V44.0003ZM130 0.000366211H132V-1.99963H130V0.000366211ZM129 0.000366211V-1.99963H127V0.000366211H129ZM129 44.0003V46.0003H131V44.0003H129ZM0 44.0003V42.0003H-2V44.0003H0ZM0 45.0003H-2V47.0003H0V45.0003ZM129 45.0003H131V43.0003H129V45.0003ZM129 175V177H131V175H129ZM0 175V173H-2V175H0ZM0 176H-2V178H0V176ZM129 176H131V174H129V176ZM129 306V308H131V306H129ZM0 306V304H-2V306H0ZM0 307H-2V309H0V307ZM129 307H131V305H129V307ZM129 437V439H131V437H129ZM0 437V435H-2V437H0ZM0 438H-2V440H0V438ZM129 438H131V436H129V438ZM129 568.001V570.001H131V568.001H129ZM0 568.001V566.001H-2V568.001H0ZM0 569.001H-2V571.001H0V569.001ZM129 569.001H131V567.001H129V569.001ZM129 699.001V701.001H131V699.001H129ZM0 699.001V697.001H-2V699.001H0ZM0 700.001H-2V702.001H0V700.001ZM129 700.001H131V698.001H129V700.001ZM129 830.001V832.001H131V830.001H129ZM0 830.001V828.001H-2V830.001H0ZM0 831.001H-2V833.001H0V831.001ZM129 831.001H131V829.001H129V831.001ZM129 960H127V962H129V960ZM130 960V962H132V960H130ZM130 831.001V829.001H128V831.001H130ZM260 831.001H262V829.001H260V831.001ZM260 960H258V962H260V960ZM261 960V962H263V960H261ZM261 831.001V829.001H259V831.001H261ZM391 831.001H393V829.001H391V831.001ZM391 960H389V962H391V960ZM392 960V962H394V960H392ZM392 831.001V829.001H390V831.001H392ZM522 831.001H524V829.001H522V831.001ZM522 960H520V962H522V960ZM523 960V962H525V960H523ZM523 831.001V829.001H521V831.001H523ZM653 831.001H655V829.001H653V831.001ZM653 960H651V962H653V960ZM654 960V962H656V960H654ZM654 831.001V829.001H652V831.001H654ZM784 831.001H786V829.001H784V831.001ZM784 960H782V962H784V960ZM785 960V962H787V960H785ZM785 831.001V829.001H783V831.001H785ZM915 831.001H917V829.001H915V831.001ZM915 960H913V962H915V960ZM916 960V962H918V960H916ZM916 831.001V829.001H914V831.001H916ZM1046 831.001H1048V829.001H1046V831.001ZM1046 960H1044V962H1046V960ZM1047 960V962H1049V960H1047ZM1047 831.001V829.001H1045V831.001H1047ZM1177 831.001H1179V829.001H1177V831.001ZM1177 960H1175V962H1177V960ZM1178 960V962H1180V960H1178ZM1178 831.001V829.001H1176V831.001H1178ZM1308 831.001H1310V829.001H1308V831.001ZM1308 960H1306V962H1308V960ZM1309 960V962H1311V960H1309ZM1309 831.001V829.001H1307V831.001H1309ZM1439 831.001H1441V829.001H1439V831.001ZM130 45.0003V43.0003H128V45.0003H130ZM130 175H128V177H130V175ZM260 175V177H262V175H260ZM260 45.0003H262V43.0003H260V45.0003ZM261 45.0003V43.0003H259V45.0003H261ZM261 175H259V177H261V175ZM391 175V177H393V175H391ZM391 45.0003H393V43.0003H391V45.0003ZM392 45.0003V43.0003H390V45.0003H392ZM392 175H390V177H392V175ZM522 175V177H524V175H522ZM522 45.0003H524V43.0003H522V45.0003ZM523 45.0003V43.0003H521V45.0003H523ZM523 175H521V177H523V175ZM653 175V177H655V175H653ZM653 45.0003H655V43.0003H653V45.0003ZM654 45.0003V43.0003H652V45.0003H654ZM654 175H652V177H654V175ZM784 175V177H786V175H784ZM784 45.0002H786V43.0002H784V45.0002ZM785 45.0002V43.0002H783V45.0002H785ZM785 175H783V177H785V175ZM915 175V177H917V175H915ZM915 45.0002H917V43.0002H915V45.0002ZM916 45.0002V43.0002H914V45.0002H916ZM916 175H914V177H916V175ZM1046 175V177H1048V175H1046ZM1046 45.0002H1048V43.0002H1046V45.0002ZM1047 45.0002V43.0002H1045V45.0002H1047ZM1047 175H1045V177H1047V175ZM1177 175V177H1179V175H1177ZM1177 45.0002H1179V43.0002H1177V45.0002ZM1178 45.0002V43.0002H1176V45.0002H1178ZM1178 175H1176V177H1178V175ZM1308 175V177H1310V175H1308ZM1308 45.0002H1310V43.0002H1308V45.0002ZM1309 45.0002V43.0002H1307V45.0002H1309ZM1309 175H1307V177H1309V175ZM1439 175V177H1441V175H1439ZM1439 45.0002H1441V43.0002H1439V45.0002ZM1439 176H1441V174H1439V176ZM1309 176V174H1307V176H1309ZM1439 306V308H1441V306H1439ZM1309 306H1307V308H1309V306ZM1308 176H1310V174H1308V176ZM1178 176V174H1176V176H1178ZM1308 306V308H1310V306H1308ZM1178 306H1176V308H1178V306ZM1177 176H1179V174H1177V176ZM1047 176V174H1045V176H1047ZM1177 306V308H1179V306H1177ZM1047 306H1045V308H1047V306ZM1046 176H1048V174H1046V176ZM916 176V174H914V176H916ZM1046 306V308H1048V306H1046ZM916 306H914V308H916V306ZM915 176H917V174H915V176ZM785 176V174H783V176H785ZM915 306V308H917V306H915ZM785 306H783V308H785V306ZM784 176H786V174H784V176ZM654 176V174H652V176H654ZM784 306V308H786V306H784ZM654 306H652V308H654V306ZM653 176H655V174H653V176ZM523 176V174H521V176H523ZM653 306V308H655V306H653ZM523 306H521V308H523V306ZM522 176H524V174H522V176ZM392 176V174H390V176H392ZM522 306V308H524V306H522ZM392 306H390V308H392V306ZM391 176H393V174H391V176ZM261 176V174H259V176H261ZM391 306V308H393V306H391ZM261 306H259V308H261V306ZM260 176H262V174H260V176ZM130 176V174H128V176H130ZM260 306V308H262V306H260ZM130 306H128V308H130V306ZM130 437H128V439H130V437ZM130 307V305H128V307H130ZM260 437V439H262V437H260ZM260 307H262V305H260V307ZM261 437H259V439H261V437ZM261 307V305H259V307H261ZM391 437V439H393V437H391ZM391 307H393V305H391V307ZM392 437H390V439H392V437ZM392 307V305H390V307H392ZM522 437V439H524V437H522ZM522 307H524V305H522V307ZM523 437H521V439H523V437ZM523 307V305H521V307H523ZM653 437V439H655V437H653ZM653 307H655V305H653V307ZM654 437H652V439H654V437ZM654 307V305H652V307H654ZM784 437V439H786V437H784ZM784 307H786V305H784V307ZM785 437H783V439H785V437ZM785 307V305H783V307H785ZM915 437V439H917V437H915ZM915 307H917V305H915V307ZM916 437H914V439H916V437ZM916 307V305H914V307H916ZM1046 437V439H1048V437H1046ZM1046 307H1048V305H1046V307ZM1047 437H1045V439H1047V437ZM1047 307V305H1045V307H1047ZM1177 437V439H1179V437H1177ZM1177 307H1179V305H1177V307ZM1178 437H1176V439H1178V437ZM1178 307V305H1176V307H1178ZM1308 437V439H1310V437H1308ZM1308 307H1310V305H1308V307ZM1309 437H1307V439H1309V437ZM1309 307V305H1307V307H1309ZM1439 437V439H1441V437H1439ZM1439 307H1441V305H1439V307ZM1439 438H1441V436H1439V438ZM1309 438V436H1307V438H1309ZM1439 568V570H1441V568H1439ZM1309 568H1307V570H1309V568ZM1308 438H1310V436H1308V438ZM1178 438V436H1176V438H1178ZM1308 568V570H1310V568H1308ZM1178 568H1176V570H1178V568ZM1177 438H1179V436H1177V438ZM1047 438V436H1045V438H1047ZM1177 568V570H1179V568H1177ZM1047 568H1045V570H1047V568ZM1046 438H1048V436H1046V438ZM916 438V436H914V438H916ZM1046 568V570H1048V568H1046ZM916 568H914V570H916V568ZM915 438H917V436H915V438ZM785 438V436H783V438H785ZM915 568V570H917V568H915ZM785 568H783V570H785V568ZM784 438H786V436H784V438ZM654 438V436H652V438H654ZM784 568V570H786V568H784ZM654 568H652V570H654V568ZM653 438H655V436H653V438ZM523 438V436H521V438H523ZM653 568V570H655V568H653ZM523 568H521V570H523V568ZM522 438H524V436H522V438ZM392 438V436H390V438H392ZM522 568V570H524V568H522ZM392 568H390V570H392V568ZM391 438H393V436H391V438ZM261 438V436H259V438H261ZM391 568V570H393V568H391ZM261 568.001H259V570.001H261V568.001ZM260 438H262V436H260V438ZM130 438V436H128V438H130ZM260 568.001V570.001H262V568.001H260ZM130 568.001H128V570.001H130V568.001ZM130 699.001H128V701.001H130V699.001ZM130 569.001V567.001H128V569.001H130ZM260 699.001V701.001H262V699.001H260ZM260 569.001H262V567.001H260V569.001ZM261 699.001H259V701.001H261V699.001ZM261 569.001V567.001H259V569.001H261ZM391 699.001V701.001H393V699.001H391ZM391 569H393V567H391V569ZM392 699.001H390V701.001H392V699.001ZM392 569V567H390V569H392ZM522 699.001V701.001H524V699.001H522ZM522 569H524V567H522V569ZM523 699.001H521V701.001H523V699.001ZM523 569V567H521V569H523ZM653 699.001V701.001H655V699.001H653ZM653 569H655V567H653V569ZM654 699.001H652V701.001H654V699.001ZM654 569V567H652V569H654ZM784 699.001V701.001H786V699.001H784ZM784 569H786V567H784V569ZM785 699.001H783V701.001H785V699.001ZM785 569V567H783V569H785ZM915 699.001V701.001H917V699.001H915ZM915 569H917V567H915V569ZM916 699.001H914V701.001H916V699.001ZM916 569V567H914V569H916ZM1046 699.001V701.001H1048V699.001H1046ZM1046 569H1048V567H1046V569ZM1047 699.001H1045V701.001H1047V699.001ZM1047 569V567H1045V569H1047ZM1177 699.001V701.001H1179V699.001H1177ZM1177 569H1179V567H1177V569ZM1178 699.001H1176V701.001H1178V699.001ZM1178 569V567H1176V569H1178ZM1308 699.001V701.001H1310V699.001H1308ZM1308 569H1310V567H1308V569ZM1309 699.001H1307V701.001H1309V699.001ZM1309 569V567H1307V569H1309ZM1439 699.001V701.001H1441V699.001H1439ZM1439 569H1441V567H1439V569ZM1439 700.001H1441V698.001H1439V700.001ZM1309 700.001V698.001H1307V700.001H1309ZM1439 830.001V832.001H1441V830.001H1439ZM1309 830.001H1307V832.001H1309V830.001ZM1308 700.001H1310V698.001H1308V700.001ZM1178 700.001V698.001H1176V700.001H1178ZM1308 830.001V832.001H1310V830.001H1308ZM1178 830.001H1176V832.001H1178V830.001ZM1177 700.001H1179V698.001H1177V700.001ZM1047 700.001V698.001H1045V700.001H1047ZM1177 830.001V832.001H1179V830.001H1177ZM1047 830.001H1045V832.001H1047V830.001ZM1046 700.001H1048V698.001H1046V700.001ZM916 700.001V698.001H914V700.001H916ZM1046 830.001V832.001H1048V830.001H1046ZM916 830.001H914V832.001H916V830.001ZM915 700.001H917V698.001H915V700.001ZM785 700.001V698.001H783V700.001H785ZM915 830.001V832.001H917V830.001H915ZM785 830.001H783V832.001H785V830.001ZM784 700.001H786V698.001H784V700.001ZM654 700.001V698.001H652V700.001H654ZM784 830.001V832.001H786V830.001H784ZM654 830.001H652V832.001H654V830.001ZM653 700.001H655V698.001H653V700.001ZM523 700.001V698.001H521V700.001H523ZM653 830.001V832.001H655V830.001H653ZM523 830.001H521V832.001H523V830.001ZM522 700.001H524V698.001H522V700.001ZM392 700.001V698.001H390V700.001H392ZM522 830.001V832.001H524V830.001H522ZM392 830.001H390V832.001H392V830.001ZM391 700.001H393V698.001H391V700.001ZM261 700.001V698.001H259V700.001H261ZM391 830.001V832.001H393V830.001H391ZM261 830.001H259V832.001H261V830.001ZM260 700.001H262V698.001H260V700.001ZM130 700.001V698.001H128V700.001H130ZM260 830.001V832.001H262V830.001H260ZM130 830.001H128V832.001H130V830.001ZM-1 960V962H1V960H-1ZM-2 960H-4V962H-2V960ZM-1 0.000366211H1V-1.99963H-1V0.000366211ZM-2 0.000366211V-1.99963H-4V0.000366211H-2ZM1442 962.001V961.001H1438V962.001H1442ZM0 964.001L1440 964.001L1440 960.001L0 960.001V964.001ZM-2 961.001V962.001H2V961.001H-2ZM1440 959.001L0 959.001V963.001L1440 963.001L1440 959.001ZM1440 958H1439V962H1440V958ZM1438 831.001V960H1442V831.001H1438ZM1438 830.001V831.001H1442V830.001H1438ZM1438 700.001V830.001H1442V700.001H1438ZM1438 699.001V700.001H1442V699.001H1438ZM1438 569V699.001H1442V569H1438ZM1438 568V569H1442V568H1438ZM1438 438V568H1442V438H1438ZM1438 437V438H1442V437H1438ZM1438 307V437H1442V307H1438ZM1438 306V307H1442V306H1438ZM1438 176V306H1442V176H1438ZM1438 175V176H1442V175H1438ZM1438 45.0002V175H1442V45.0002H1438ZM1438 44.0002V45.0002H1442V44.0002H1438ZM1438 0.000366211V44.0002H1442V0.000366211H1438ZM1439 2.00037H1440V-1.99963H1439V2.00037ZM1441 44.0002V0.000366211H1437V44.0002H1441ZM1309 46.0002H1439V42.0002H1309V46.0002ZM1307 0.000366211V44.0002H1311V0.000366211H1307ZM1308 2.00037H1309V-1.99963H1308V2.00037ZM1310 44.0002V0.000366211H1306V44.0002H1310ZM1178 46.0002H1308V42.0002H1178V46.0002ZM1176 0.000366211V44.0002H1180V0.000366211H1176ZM1177 2.00037H1178V-1.99963H1177V2.00037ZM1179 44.0002V0.000366211H1175V44.0002H1179ZM1047 46.0002H1177V42.0002H1047V46.0002ZM1045 0.000366211V44.0002H1049V0.000366211H1045ZM1046 2.00037H1047V-1.99963H1046V2.00037ZM1048 44.0002V0.000366211H1044V44.0002H1048ZM916 46.0002H1046V42.0002H916V46.0002ZM914 0.000366211V44.0002H918V0.000366211H914ZM915 2.00037H916V-1.99963H915V2.00037ZM917 44.0002V0.000366211H913V44.0002H917ZM785 46.0002H915V42.0002H785V46.0002ZM783 0.000366211V44.0002H787V0.000366211H783ZM784 2.00037H785V-1.99963H784V2.00037ZM786 44.0002V0.000366211H782V44.0002H786ZM654 46.0003L784 46.0002V42.0002L654 42.0003V46.0003ZM652 0.000366211V44.0003H656V0.000366211H652ZM653 2.00037H654V-1.99963H653V2.00037ZM655 44.0003V0.000366211H651V44.0003H655ZM523 46.0003H653V42.0003H523V46.0003ZM521 0.000366211V44.0003H525V0.000366211H521ZM522 2.00037H523V-1.99963H522V2.00037ZM524 44.0003V0.000366211H520V44.0003H524ZM392 46.0003H522V42.0003H392V46.0003ZM390 0.000366211V44.0003H394V0.000366211H390ZM391 2.00037H392V-1.99963H391V2.00037ZM393 44.0003V0.000366211H389V44.0003H393ZM261 46.0003H391V42.0003H261V46.0003ZM259 0.000366211V44.0003H263V0.000366211H259ZM260 2.00037H261V-1.99963H260V2.00037ZM262 44.0003V0.000366211H258V44.0003H262ZM130 46.0003H260V42.0003H130V46.0003ZM128 0.000366211V44.0003H132V0.000366211H128ZM129 2.00037H130V-1.99963H129V2.00037ZM131 44.0003V0.000366211H127V44.0003H131ZM0 46.0003H129V42.0003H0V46.0003ZM2 45.0003V44.0003H-2V45.0003H2ZM129 43.0003H0V47.0003H129V43.0003ZM131 175V45.0003H127V175H131ZM0 177H129V173H0V177ZM2 176V175H-2V176H2ZM129 174H0V178H129V174ZM131 306V176H127V306H131ZM0 308H129V304H0V308ZM2 307V306H-2V307H2ZM129 305H0V309H129V305ZM131 437V307H127V437H131ZM0 439H129V435H0V439ZM2 438V437H-2V438H2ZM129 436H0V440H129V436ZM131 568.001V438H127V568.001H131ZM0 570.001H129V566.001H0V570.001ZM2 569.001V568.001H-2V569.001H2ZM129 567.001H0V571.001H129V567.001ZM131 699.001V569.001H127V699.001H131ZM0 701.001H129V697.001H0V701.001ZM2 700.001V699.001H-2V700.001H2ZM129 698.001H0V702.001H129V698.001ZM131 830.001V700.001H127V830.001H131ZM0 832.001H129V828.001H0V832.001ZM2 831.001V830.001H-2V831.001H2ZM129 829.001H0V833.001H129V829.001ZM131 960V831.001H127V960H131ZM130 958H129V962H130V958ZM128 831.001V960H132V831.001H128ZM260 829.001L130 829.001V833.001L260 833.001V829.001ZM262 960V831.001H258V960H262ZM261 958H260V962H261V958ZM259 831.001V960H263V831.001H259ZM391 829.001H261V833.001H391V829.001ZM393 960V831.001H389V960H393ZM392 958H391V962H392V958ZM390 831.001V960H394V831.001H390ZM522 829.001H392V833.001H522V829.001ZM524 960V831.001H520V960H524ZM523 958H522V962H523V958ZM521 831.001V960H525V831.001H521ZM653 829.001L523 829.001V833.001L653 833.001V829.001ZM655 960V831.001H651V960H655ZM654 958H653V962H654V958ZM652 831.001V960H656V831.001H652ZM784 829.001H654V833.001H784V829.001ZM786 960V831.001H782V960H786ZM785 958H784V962H785V958ZM783 831.001V960H787V831.001H783ZM915 829.001L785 829.001V833.001L915 833.001V829.001ZM917 960V831.001H913V960H917ZM916 958H915V962H916V958ZM914 831.001V960H918V831.001H914ZM1046 829.001H916V833.001H1046V829.001ZM1048 960V831.001H1044V960H1048ZM1047 958H1046V962H1047V958ZM1045 831.001V960H1049V831.001H1045ZM1177 829.001H1047V833.001H1177V829.001ZM1179 960V831.001H1175V960H1179ZM1178 958H1177V962H1178V958ZM1176 831.001V960H1180V831.001H1176ZM1308 829.001L1178 829.001V833.001L1308 833.001V829.001ZM1310 960V831.001H1306V960H1310ZM1309 958H1308V962H1309V958ZM1307 831.001V960H1311V831.001H1307ZM1439 829.001H1309V833.001H1439V829.001ZM1441 960V831.001H1437V960H1441ZM128 45.0003V175H132V45.0003H128ZM130 177H260V173H130V177ZM262 175V45.0003H258V175H262ZM260 43.0003H130V47.0003H260V43.0003ZM259 45.0003V175H263V45.0003H259ZM261 177H391V173H261V177ZM393 175V45.0003H389V175H393ZM391 43.0003H261V47.0003H391V43.0003ZM390 45.0003V175H394V45.0003H390ZM392 177H522V173H392V177ZM524 175V45.0003H520V175H524ZM522 43.0003H392V47.0003H522V43.0003ZM521 45.0003V175H525V45.0003H521ZM523 177H653V173H523V177ZM655 175V45.0003H651V175H655ZM653 43.0003H523V47.0003H653V43.0003ZM652 45.0003V175H656V45.0003H652ZM654 177L784 177V173L654 173V177ZM786 175V45.0002H782V175H786ZM784 43.0002L654 43.0003V47.0003L784 47.0002V43.0002ZM783 45.0002V175H787V45.0002H783ZM785 177H915V173H785V177ZM917 175V45.0002H913V175H917ZM915 43.0002H785V47.0002H915V43.0002ZM914 45.0002V175H918V45.0002H914ZM916 177H1046V173H916V177ZM1048 175V45.0002H1044V175H1048ZM1046 43.0002H916V47.0002H1046V43.0002ZM1045 45.0002V175H1049V45.0002H1045ZM1047 177H1177V173H1047V177ZM1179 175V45.0002H1175V175H1179ZM1177 43.0002H1047V47.0002H1177V43.0002ZM1176 45.0002V175H1180V45.0002H1176ZM1178 177H1308V173H1178V177ZM1310 175V45.0002H1306V175H1310ZM1308 43.0002H1178V47.0002H1308V43.0002ZM1307 45.0002V175H1311V45.0002H1307ZM1309 177H1439V173H1309V177ZM1441 175V45.0002H1437V175H1441ZM1439 43.0002H1309V47.0002H1439V43.0002ZM1439 174H1309V178H1439V174ZM1441 306V176H1437V306H1441ZM1309 308H1439V304H1309V308ZM1307 176V306H1311V176H1307ZM1308 174H1178V178H1308V174ZM1310 306V176H1306V306H1310ZM1178 308H1308V304H1178V308ZM1176 176V306H1180V176H1176ZM1177 174H1047V178H1177V174ZM1179 306V176H1175V306H1179ZM1047 308H1177V304H1047V308ZM1045 176V306H1049V176H1045ZM1046 174H916V178H1046V174ZM1048 306V176H1044V306H1048ZM916 308H1046V304H916V308ZM914 176V306H918V176H914ZM915 174H785V178H915V174ZM917 306V176H913V306H917ZM785 308H915V304H785V308ZM783 176V306H787V176H783ZM784 174L654 174V178L784 178V174ZM786 306V176H782V306H786ZM654 308L784 308V304L654 304V308ZM652 176V306H656V176H652ZM653 174H523V178H653V174ZM655 306V176H651V306H655ZM523 308H653V304H523V308ZM521 176V306H525V176H521ZM522 174H392V178H522V174ZM524 306V176H520V306H524ZM392 308H522V304H392V308ZM390 176V306H394V176H390ZM391 174H261V178H391V174ZM393 306V176H389V306H393ZM261 308H391V304H261V308ZM259 176V306H263V176H259ZM260 174H130V178H260V174ZM262 306V176H258V306H262ZM130 308H260V304H130V308ZM128 176V306H132V176H128ZM132 437V307H128V437H132ZM260 435H130V439H260V435ZM258 307V437H262V307H258ZM130 309H260V305H130V309ZM263 437V307H259V437H263ZM391 435H261V439H391V435ZM389 307V437H393V307H389ZM261 309H391V305H261V309ZM394 437V307H390V437H394ZM522 435H392V439H522V435ZM520 307V437H524V307H520ZM392 309H522V305H392V309ZM525 437V307H521V437H525ZM653 435H523V439H653V435ZM651 307V437H655V307H651ZM523 309H653V305H523V309ZM656 437V307H652V437H656ZM784 435L654 435V439L784 439V435ZM782 307V437H786V307H782ZM654 309L784 309V305L654 305V309ZM787 437V307H783V437H787ZM915 435H785V439H915V435ZM913 307V437H917V307H913ZM785 309H915V305H785V309ZM918 437V307H914V437H918ZM1046 435H916V439H1046V435ZM1044 307V437H1048V307H1044ZM916 309H1046V305H916V309ZM1049 437V307H1045V437H1049ZM1177 435H1047V439H1177V435ZM1175 307V437H1179V307H1175ZM1047 309H1177V305H1047V309ZM1180 437V307H1176V437H1180ZM1308 435H1178V439H1308V435ZM1306 307V437H1310V307H1306ZM1178 309H1308V305H1178V309ZM1311 437V307H1307V437H1311ZM1439 435H1309V439H1439V435ZM1437 307V437H1441V307H1437ZM1309 309H1439V305H1309V309ZM1439 436H1309V440H1439V436ZM1441 568V438H1437V568H1441ZM1309 570H1439V566H1309V570ZM1307 438V568H1311V438H1307ZM1308 436H1178V440H1308V436ZM1310 568V438H1306V568H1310ZM1178 570H1308V566H1178V570ZM1176 438V568H1180V438H1176ZM1177 436H1047V440H1177V436ZM1179 568V438H1175V568H1179ZM1047 570L1177 570V566L1047 566V570ZM1045 438V568H1049V438H1045ZM1046 436H916V440H1046V436ZM1048 568V438H1044V568H1048ZM916 570H1046V566H916V570ZM914 438V568H918V438H914ZM915 436H785V440H915V436ZM917 568V438H913V568H917ZM785 570H915V566H785V570ZM783 438V568H787V438H783ZM784 436L654 436V440L784 440V436ZM786 568V438H782V568H786ZM654 570H784V566H654V570ZM652 438V568H656V438H652ZM653 436H523V440H653V436ZM655 568V438H651V568H655ZM523 570H653V566H523V570ZM521 438V568H525V438H521ZM522 436H392V440H522V436ZM524 568V438H520V568H524ZM392 570H522V566H392V570ZM390 438V568H394V438H390ZM391 436H261V440H391V436ZM393 568V438H389V568H393ZM261 570.001L391 570V566L261 566.001V570.001ZM259 438V568.001H263V438H259ZM260 436H130V440H260V436ZM262 568.001V438H258V568.001H262ZM130 570.001H260V566.001H130V570.001ZM128 438V568.001H132V438H128ZM132 699.001V569.001H128V699.001H132ZM260 697.001H130V701.001H260V697.001ZM258 569.001V699.001H262V569.001H258ZM130 571.001H260V567.001H130V571.001ZM263 699.001V569.001H259V699.001H263ZM391 697.001L261 697.001V701.001L391 701.001V697.001ZM389 569V699.001H393V569H389ZM261 571.001L391 571V567L261 567.001V571.001ZM394 699.001V569H390V699.001H394ZM522 697.001H392V701.001H522V697.001ZM520 569V699.001H524V569H520ZM392 571H522V567H392V571ZM525 699.001V569H521V699.001H525ZM653 697.001H523V701.001H653V697.001ZM651 569V699.001H655V569H651ZM523 571H653V567H523V571ZM656 699.001V569H652V699.001H656ZM784 697.001H654V701.001H784V697.001ZM782 569V699.001H786V569H782ZM654 571H784V567H654V571ZM787 699.001V569H783V699.001H787ZM915 697.001H785V701.001H915V697.001ZM913 569V699.001H917V569H913ZM785 571H915V567H785V571ZM918 699.001V569H914V699.001H918ZM1046 697.001H916V701.001H1046V697.001ZM1044 569V699.001H1048V569H1044ZM916 571H1046V567H916V571ZM1049 699.001V569H1045V699.001H1049ZM1177 697.001L1047 697.001V701.001L1177 701.001V697.001ZM1175 569V699.001H1179V569H1175ZM1047 571L1177 571V567L1047 567V571ZM1180 699.001V569H1176V699.001H1180ZM1308 697.001H1178V701.001H1308V697.001ZM1306 569V699.001H1310V569H1306ZM1178 571H1308V567H1178V571ZM1311 699.001V569H1307V699.001H1311ZM1439 697.001H1309V701.001H1439V697.001ZM1437 569V699.001H1441V569H1437ZM1309 571H1439V567H1309V571ZM1439 698.001H1309V702.001H1439V698.001ZM1441 830.001V700.001H1437V830.001H1441ZM1309 832.001H1439V828.001H1309V832.001ZM1307 700.001V830.001H1311V700.001H1307ZM1308 698.001H1178V702.001H1308V698.001ZM1310 830.001V700.001H1306V830.001H1310ZM1178 832.001L1308 832.001V828.001L1178 828.001V832.001ZM1176 700.001V830.001H1180V700.001H1176ZM1177 698.001L1047 698.001V702.001L1177 702.001V698.001ZM1179 830.001V700.001H1175V830.001H1179ZM1047 832.001H1177V828.001H1047V832.001ZM1045 700.001V830.001H1049V700.001H1045ZM1046 698.001H916V702.001H1046V698.001ZM1048 830.001V700.001H1044V830.001H1048ZM916 832.001H1046V828.001H916V832.001ZM914 700.001V830.001H918V700.001H914ZM915 698.001H785V702.001H915V698.001ZM917 830.001V700.001H913V830.001H917ZM785 832.001L915 832.001V828.001L785 828.001V832.001ZM783 700.001V830.001H787V700.001H783ZM784 698.001H654V702.001H784V698.001ZM786 830.001V700.001H782V830.001H786ZM654 832.001H784V828.001H654V832.001ZM652 700.001V830.001H656V700.001H652ZM653 698.001H523V702.001H653V698.001ZM655 830.001V700.001H651V830.001H655ZM523 832.001L653 832.001V828.001L523 828.001V832.001ZM521 700.001V830.001H525V700.001H521ZM522 698.001H392V702.001H522V698.001ZM524 830.001V700.001H520V830.001H524ZM392 832.001H522V828.001H392V832.001ZM390 700.001V830.001H394V700.001H390ZM391 698.001L261 698.001V702.001L391 702.001V698.001ZM393 830.001V700.001H389V830.001H393ZM261 832.001H391V828.001H261V832.001ZM259 700.001V830.001H263V700.001H259ZM260 698.001H130V702.001H260V698.001ZM262 830.001V700.001H258V830.001H262ZM130 832.001L260 832.001V828.001L130 828.001V832.001ZM128 700.001V830.001H132V700.001H128ZM-1 958H-2V962H-1V958ZM-3 0.000366211V960H1V0.000366211H-3ZM-2 2.00037H-1V-1.99963H-2V2.00037ZM0 960V0.000366211H-4V960H0Z" fill="url(#paint0_radial_208_1407)" fill-opacity="0.4" mask="url(#path-1-inside-1_208_1407)"/>
<defs>
<radialGradient id="paint0_radial_208_1407" cx="0" cy="0" r="1" gradientUnits="userSpaceOnUse" gradientTransform="translate(1070 753.567) rotate(-156.79) scale(826.381 659.362)">
<stop stop-color="#606062"/>
<stop offset="0.631051" stop-color="#606062" stop-opacity="0.2"/>
</radialGradient>
</defs>
</svg>
